%TF.GenerationSoftware,KiCad,Pcbnew,10.0.5*%
%TF.CreationDate,2026-08-16T15:56:36+09:00*%
%TF.ProjectId,S0-0603,53302d30-3630-4332-9e6b-696361645f70,rev?*%
%TF.SameCoordinates,Original*%
%TF.FileFunction,Legend,Top*%
%TF.FilePolarity,Positive*%
%FSLAX46Y46*%
G04 Gerber Fmt 4.6, Leading zero omitted, Abs format (unit mm)*
G04 Created by KiCad (PCBNEW 10.0.5) date 2026-08-16 15:56:36*
%MOMM*%
%LPD*%
G01*
G04 APERTURE LIST*
%ADD10C,0.150000*%
G04 APERTURE END LIST*
D10*
X1714286Y-31407200D02*
X1857143Y-31454819D01*
X1857143Y-31454819D02*
X2095238Y-31454819D01*
X2095238Y-31454819D02*
X2190476Y-31407200D01*
X2190476Y-31407200D02*
X2238095Y-31359580D01*
X2238095Y-31359580D02*
X2285714Y-31264342D01*
X2285714Y-31264342D02*
X2285714Y-31169104D01*
X2285714Y-31169104D02*
X2238095Y-31073866D01*
X2238095Y-31073866D02*
X2190476Y-31026247D01*
X2190476Y-31026247D02*
X2095238Y-30978628D01*
X2095238Y-30978628D02*
X1904762Y-30931009D01*
X1904762Y-30931009D02*
X1809524Y-30883390D01*
X1809524Y-30883390D02*
X1761905Y-30835771D01*
X1761905Y-30835771D02*
X1714286Y-30740533D01*
X1714286Y-30740533D02*
X1714286Y-30645295D01*
X1714286Y-30645295D02*
X1761905Y-30550057D01*
X1761905Y-30550057D02*
X1809524Y-30502438D01*
X1809524Y-30502438D02*
X1904762Y-30454819D01*
X1904762Y-30454819D02*
X2142857Y-30454819D01*
X2142857Y-30454819D02*
X2285714Y-30502438D01*
X2904762Y-30454819D02*
X3000000Y-30454819D01*
X3000000Y-30454819D02*
X3095238Y-30502438D01*
X3095238Y-30502438D02*
X3142857Y-30550057D01*
X3142857Y-30550057D02*
X3190476Y-30645295D01*
X3190476Y-30645295D02*
X3238095Y-30835771D01*
X3238095Y-30835771D02*
X3238095Y-31073866D01*
X3238095Y-31073866D02*
X3190476Y-31264342D01*
X3190476Y-31264342D02*
X3142857Y-31359580D01*
X3142857Y-31359580D02*
X3095238Y-31407200D01*
X3095238Y-31407200D02*
X3000000Y-31454819D01*
X3000000Y-31454819D02*
X2904762Y-31454819D01*
X2904762Y-31454819D02*
X2809524Y-31407200D01*
X2809524Y-31407200D02*
X2761905Y-31359580D01*
X2761905Y-31359580D02*
X2714286Y-31264342D01*
X2714286Y-31264342D02*
X2666667Y-31073866D01*
X2666667Y-31073866D02*
X2666667Y-30835771D01*
X2666667Y-30835771D02*
X2714286Y-30645295D01*
X2714286Y-30645295D02*
X2761905Y-30550057D01*
X2761905Y-30550057D02*
X2809524Y-30502438D01*
X2809524Y-30502438D02*
X2904762Y-30454819D01*
X3666667Y-31073866D02*
X4428572Y-31073866D01*
X5095238Y-30454819D02*
X5190476Y-30454819D01*
X5190476Y-30454819D02*
X5285714Y-30502438D01*
X5285714Y-30502438D02*
X5333333Y-30550057D01*
X5333333Y-30550057D02*
X5380952Y-30645295D01*
X5380952Y-30645295D02*
X5428571Y-30835771D01*
X5428571Y-30835771D02*
X5428571Y-31073866D01*
X5428571Y-31073866D02*
X5380952Y-31264342D01*
X5380952Y-31264342D02*
X5333333Y-31359580D01*
X5333333Y-31359580D02*
X5285714Y-31407200D01*
X5285714Y-31407200D02*
X5190476Y-31454819D01*
X5190476Y-31454819D02*
X5095238Y-31454819D01*
X5095238Y-31454819D02*
X5000000Y-31407200D01*
X5000000Y-31407200D02*
X4952381Y-31359580D01*
X4952381Y-31359580D02*
X4904762Y-31264342D01*
X4904762Y-31264342D02*
X4857143Y-31073866D01*
X4857143Y-31073866D02*
X4857143Y-30835771D01*
X4857143Y-30835771D02*
X4904762Y-30645295D01*
X4904762Y-30645295D02*
X4952381Y-30550057D01*
X4952381Y-30550057D02*
X5000000Y-30502438D01*
X5000000Y-30502438D02*
X5095238Y-30454819D01*
X6285714Y-30454819D02*
X6095238Y-30454819D01*
X6095238Y-30454819D02*
X6000000Y-30502438D01*
X6000000Y-30502438D02*
X5952381Y-30550057D01*
X5952381Y-30550057D02*
X5857143Y-30692914D01*
X5857143Y-30692914D02*
X5809524Y-30883390D01*
X5809524Y-30883390D02*
X5809524Y-31264342D01*
X5809524Y-31264342D02*
X5857143Y-31359580D01*
X5857143Y-31359580D02*
X5904762Y-31407200D01*
X5904762Y-31407200D02*
X6000000Y-31454819D01*
X6000000Y-31454819D02*
X6190476Y-31454819D01*
X6190476Y-31454819D02*
X6285714Y-31407200D01*
X6285714Y-31407200D02*
X6333333Y-31359580D01*
X6333333Y-31359580D02*
X6380952Y-31264342D01*
X6380952Y-31264342D02*
X6380952Y-31026247D01*
X6380952Y-31026247D02*
X6333333Y-30931009D01*
X6333333Y-30931009D02*
X6285714Y-30883390D01*
X6285714Y-30883390D02*
X6190476Y-30835771D01*
X6190476Y-30835771D02*
X6000000Y-30835771D01*
X6000000Y-30835771D02*
X5904762Y-30883390D01*
X5904762Y-30883390D02*
X5857143Y-30931009D01*
X5857143Y-30931009D02*
X5809524Y-31026247D01*
X7000000Y-30454819D02*
X7095238Y-30454819D01*
X7095238Y-30454819D02*
X7190476Y-30502438D01*
X7190476Y-30502438D02*
X7238095Y-30550057D01*
X7238095Y-30550057D02*
X7285714Y-30645295D01*
X7285714Y-30645295D02*
X7333333Y-30835771D01*
X7333333Y-30835771D02*
X7333333Y-31073866D01*
X7333333Y-31073866D02*
X7285714Y-31264342D01*
X7285714Y-31264342D02*
X7238095Y-31359580D01*
X7238095Y-31359580D02*
X7190476Y-31407200D01*
X7190476Y-31407200D02*
X7095238Y-31454819D01*
X7095238Y-31454819D02*
X7000000Y-31454819D01*
X7000000Y-31454819D02*
X6904762Y-31407200D01*
X6904762Y-31407200D02*
X6857143Y-31359580D01*
X6857143Y-31359580D02*
X6809524Y-31264342D01*
X6809524Y-31264342D02*
X6761905Y-31073866D01*
X6761905Y-31073866D02*
X6761905Y-30835771D01*
X6761905Y-30835771D02*
X6809524Y-30645295D01*
X6809524Y-30645295D02*
X6857143Y-30550057D01*
X6857143Y-30550057D02*
X6904762Y-30502438D01*
X6904762Y-30502438D02*
X7000000Y-30454819D01*
X7666667Y-30454819D02*
X8285714Y-30454819D01*
X8285714Y-30454819D02*
X7952381Y-30835771D01*
X7952381Y-30835771D02*
X8095238Y-30835771D01*
X8095238Y-30835771D02*
X8190476Y-30883390D01*
X8190476Y-30883390D02*
X8238095Y-30931009D01*
X8238095Y-30931009D02*
X8285714Y-31026247D01*
X8285714Y-31026247D02*
X8285714Y-31264342D01*
X8285714Y-31264342D02*
X8238095Y-31359580D01*
X8238095Y-31359580D02*
X8190476Y-31407200D01*
X8190476Y-31407200D02*
X8095238Y-31454819D01*
X8095238Y-31454819D02*
X7809524Y-31454819D01*
X7809524Y-31454819D02*
X7714286Y-31407200D01*
X7714286Y-31407200D02*
X7666667Y-31359580D01*
M02*
