<?xml version="1.0" standalone="no"?>
 <!DOCTYPE svg PUBLIC "-//W3C//DTD SVG 1.1//EN" 
 "http://www.w3.org/Graphics/SVG/1.1/DTD/svg11.dtd"> 
<svg
  xmlns:svg="http://www.w3.org/2000/svg"
  xmlns="http://www.w3.org/2000/svg"
  xmlns:xlink="http://www.w3.org/1999/xlink"
  xmlns:inkscape="http://www.inkscape.org/namespaces/inkscape"
  version="1.1"
  width="99.9998mm" height="39.9796mm" viewBox="0.0000 0.0000 99.9998 39.9796">
<title>SVG Image created as S90-0402_composite_top.svg date 2026-08-16T16:14:17 </title>
  <desc>Image generated by PCBNEW </desc>
<g style="fill:#000000; fill-opacity:1.0000;stroke:#000000; stroke-opacity:1.0000;
stroke-linecap:round; stroke-linejoin:round;"
 transform="translate(0 0) scale(1 1)">
<path style="fill:#C83434; fill-opacity:1.0000; stroke:none;fill-rule:evenodd;"
d="M 49.7000,10.8000
49.7000,10.2000
50.3000,10.2000
50.3000,10.8000
Z" /> 
<path style="fill:#C83434; fill-opacity:1.0000; stroke:none;fill-rule:evenodd;"
d="M 49.7000,9.8000
49.7000,9.2000
50.3000,9.2000
50.3000,9.8000
Z" /> 
</g>
<g style="fill:#C83434; fill-opacity:1.0000; stroke:none;">
<circle cx="5.0000" cy="12.5000" r="1.2500" /> 
<circle cx="5.0000" cy="17.5000" r="1.2500" /> 
<circle cx="5.0000" cy="22.5000" r="1.2500" /> 
<circle cx="5.0000" cy="27.5000" r="1.2500" /> 
</g>
<g style="fill:none; 
stroke:#C83434; stroke-width:0.5000; stroke-opacity:1; 
stroke-linecap:round; stroke-linejoin:round;">
<path d="M5.0000 12.5000
L44.0000 12.5000
" />
<path d="M44.0000 12.5000
L44.0000 10.5000
" />
<path d="M44.0000 10.5000
L50.0000 10.5000
" />
</g>
<g style="fill:none; 
stroke:#C83434; stroke-width:0.2000; stroke-opacity:1; 
stroke-linecap:round; stroke-linejoin:round;">
<path d="M5.0000 17.5000
L45.0000 17.5000
" />
<path d="M45.0000 17.5000
L45.0000 10.5000
" />
<path d="M45.0000 10.5000
L50.0000 10.5000
" />
<path d="M5.0000 22.5000
L53.0000 22.5000
" />
<path d="M53.0000 22.5000
L53.0000 9.5000
" />
<path d="M53.0000 9.5000
L50.0000 9.5000
" />
</g>
<g style="fill:none; 
stroke:#C83434; stroke-width:0.5000; stroke-opacity:1; 
stroke-linecap:round; stroke-linejoin:round;">
<path d="M5.0000 27.5000
L54.0000 27.5000
" />
<path d="M54.0000 27.5000
L54.0000 9.5000
" />
<path d="M54.0000 9.5000
L50.0000 9.5000
" />
</g>
<g style="fill:#D864FF; fill-opacity:0.4000; stroke:none;">
<circle cx="5.0000" cy="5.0000" r="1.6500" /> 
<circle cx="95.0000" cy="5.0000" r="1.6500" /> 
<circle cx="5.0000" cy="35.0000" r="1.6500" /> 
<circle cx="95.0000" cy="35.0000" r="1.6500" /> 
<path style="fill:#D864FF; fill-opacity:0.4000; stroke:none;fill-rule:evenodd;"
d="M 49.6500,10.2000
49.6538,10.1809
49.6646,10.1646
49.6809,10.1538
49.7000,10.1500
50.3000,10.1500
50.3191,10.1538
50.3354,10.1646
50.3462,10.1809
50.3500,10.2000
50.3500,10.8000
50.3462,10.8191
50.3354,10.8354
50.3191,10.8462
50.3000,10.8500
49.7000,10.8500
49.6809,10.8462
49.6646,10.8354
49.6538,10.8191
49.6500,10.8000
Z" /> 
<path style="fill:#D864FF; fill-opacity:0.4000; stroke:none;fill-rule:evenodd;"
d="M 49.6500,9.2000
49.6538,9.1809
49.6646,9.1646
49.6809,9.1538
49.7000,9.1500
50.3000,9.1500
50.3191,9.1538
50.3354,9.1646
50.3462,9.1809
50.3500,9.2000
50.3500,9.8000
50.3462,9.8191
50.3354,9.8354
50.3191,9.8462
50.3000,9.8500
49.7000,9.8500
49.6809,9.8462
49.6646,9.8354
49.6538,9.8191
49.6500,9.8000
Z" /> 
<circle cx="5.0000" cy="12.5000" r="1.3000" /> 
<circle cx="5.0000" cy="17.5000" r="1.3000" /> 
<circle cx="5.0000" cy="22.5000" r="1.3000" /> 
<circle cx="5.0000" cy="27.5000" r="1.3000" /> 
</g>
<g style="fill:none; 
stroke:#F2EDA1; stroke-width:0.1500; stroke-opacity:1; 
stroke-linecap:round; stroke-linejoin:round;">
<text x="5.0000" y="31.5000"
textLength="8.1548" font-size="1.3333" lengthAdjust="spacingAndGlyphs"
text-anchor="middle" opacity="0" stroke-opacity="0">S90-0402</text>
<g class="stroked-text"><desc>S90-0402</desc>
<path d="M1.2381 31.4072
L1.3810 31.4548
" />
<path d="M1.3810 31.4548
L1.6190 31.4548
" />
<path d="M1.6190 31.4548
L1.7143 31.4072
" />
<path d="M1.7143 31.4072
L1.7619 31.3596
" />
<path d="M1.7619 31.3596
L1.8095 31.2643
" />
<path d="M1.8095 31.2643
L1.8095 31.1691
" />
<path d="M1.8095 31.1691
L1.7619 31.0739
" />
<path d="M1.7619 31.0739
L1.7143 31.0262
" />
<path d="M1.7143 31.0262
L1.6190 30.9786
" />
<path d="M1.6190 30.9786
L1.4286 30.9310
" />
<path d="M1.4286 30.9310
L1.3333 30.8834
" />
<path d="M1.3333 30.8834
L1.2857 30.8358
" />
<path d="M1.2857 30.8358
L1.2381 30.7405
" />
<path d="M1.2381 30.7405
L1.2381 30.6453
" />
<path d="M1.2381 30.6453
L1.2857 30.5501
" />
<path d="M1.2857 30.5501
L1.3333 30.5024
" />
<path d="M1.3333 30.5024
L1.4286 30.4548
" />
<path d="M1.4286 30.4548
L1.6667 30.4548
" />
<path d="M1.6667 30.4548
L1.8095 30.5024
" />
<path d="M2.2857 31.4548
L2.4762 31.4548
" />
<path d="M2.4762 31.4548
L2.5714 31.4072
" />
<path d="M2.5714 31.4072
L2.6190 31.3596
" />
<path d="M2.6190 31.3596
L2.7143 31.2167
" />
<path d="M2.7143 31.2167
L2.7619 31.0262
" />
<path d="M2.7619 31.0262
L2.7619 30.6453
" />
<path d="M2.7619 30.6453
L2.7143 30.5501
" />
<path d="M2.7143 30.5501
L2.6667 30.5024
" />
<path d="M2.6667 30.5024
L2.5714 30.4548
" />
<path d="M2.5714 30.4548
L2.3810 30.4548
" />
<path d="M2.3810 30.4548
L2.2857 30.5024
" />
<path d="M2.2857 30.5024
L2.2381 30.5501
" />
<path d="M2.2381 30.5501
L2.1905 30.6453
" />
<path d="M2.1905 30.6453
L2.1905 30.8834
" />
<path d="M2.1905 30.8834
L2.2381 30.9786
" />
<path d="M2.2381 30.9786
L2.2857 31.0262
" />
<path d="M2.2857 31.0262
L2.3810 31.0739
" />
<path d="M2.3810 31.0739
L2.5714 31.0739
" />
<path d="M2.5714 31.0739
L2.6667 31.0262
" />
<path d="M2.6667 31.0262
L2.7143 30.9786
" />
<path d="M2.7143 30.9786
L2.7619 30.8834
" />
<path d="M3.3810 30.4548
L3.4762 30.4548
" />
<path d="M3.4762 30.4548
L3.5714 30.5024
" />
<path d="M3.5714 30.5024
L3.6190 30.5501
" />
<path d="M3.6190 30.5501
L3.6667 30.6453
" />
<path d="M3.6667 30.6453
L3.7143 30.8358
" />
<path d="M3.7143 30.8358
L3.7143 31.0739
" />
<path d="M3.7143 31.0739
L3.6667 31.2643
" />
<path d="M3.6667 31.2643
L3.6190 31.3596
" />
<path d="M3.6190 31.3596
L3.5714 31.4072
" />
<path d="M3.5714 31.4072
L3.4762 31.4548
" />
<path d="M3.4762 31.4548
L3.3810 31.4548
" />
<path d="M3.3810 31.4548
L3.2857 31.4072
" />
<path d="M3.2857 31.4072
L3.2381 31.3596
" />
<path d="M3.2381 31.3596
L3.1905 31.2643
" />
<path d="M3.1905 31.2643
L3.1429 31.0739
" />
<path d="M3.1429 31.0739
L3.1429 30.8358
" />
<path d="M3.1429 30.8358
L3.1905 30.6453
" />
<path d="M3.1905 30.6453
L3.2381 30.5501
" />
<path d="M3.2381 30.5501
L3.2857 30.5024
" />
<path d="M3.2857 30.5024
L3.3810 30.4548
" />
<path d="M4.1429 31.0739
L4.9048 31.0739
" />
<path d="M5.5714 30.4548
L5.6667 30.4548
" />
<path d="M5.6667 30.4548
L5.7619 30.5024
" />
<path d="M5.7619 30.5024
L5.8095 30.5501
" />
<path d="M5.8095 30.5501
L5.8571 30.6453
" />
<path d="M5.8571 30.6453
L5.9048 30.8358
" />
<path d="M5.9048 30.8358
L5.9048 31.0739
" />
<path d="M5.9048 31.0739
L5.8571 31.2643
" />
<path d="M5.8571 31.2643
L5.8095 31.3596
" />
<path d="M5.8095 31.3596
L5.7619 31.4072
" />
<path d="M5.7619 31.4072
L5.6667 31.4548
" />
<path d="M5.6667 31.4548
L5.5714 31.4548
" />
<path d="M5.5714 31.4548
L5.4762 31.4072
" />
<path d="M5.4762 31.4072
L5.4286 31.3596
" />
<path d="M5.4286 31.3596
L5.3810 31.2643
" />
<path d="M5.3810 31.2643
L5.3333 31.0739
" />
<path d="M5.3333 31.0739
L5.3333 30.8358
" />
<path d="M5.3333 30.8358
L5.3810 30.6453
" />
<path d="M5.3810 30.6453
L5.4286 30.5501
" />
<path d="M5.4286 30.5501
L5.4762 30.5024
" />
<path d="M5.4762 30.5024
L5.5714 30.4548
" />
<path d="M6.7619 30.7882
L6.7619 31.4548
" />
<path d="M6.5238 30.4072
L6.2857 31.1215
" />
<path d="M6.2857 31.1215
L6.9048 31.1215
" />
<path d="M7.4762 30.4548
L7.5714 30.4548
" />
<path d="M7.5714 30.4548
L7.6667 30.5024
" />
<path d="M7.6667 30.5024
L7.7143 30.5501
" />
<path d="M7.7143 30.5501
L7.7619 30.6453
" />
<path d="M7.7619 30.6453
L7.8095 30.8358
" />
<path d="M7.8095 30.8358
L7.8095 31.0739
" />
<path d="M7.8095 31.0739
L7.7619 31.2643
" />
<path d="M7.7619 31.2643
L7.7143 31.3596
" />
<path d="M7.7143 31.3596
L7.6667 31.4072
" />
<path d="M7.6667 31.4072
L7.5714 31.4548
" />
<path d="M7.5714 31.4548
L7.4762 31.4548
" />
<path d="M7.4762 31.4548
L7.3810 31.4072
" />
<path d="M7.3810 31.4072
L7.3333 31.3596
" />
<path d="M7.3333 31.3596
L7.2857 31.2643
" />
<path d="M7.2857 31.2643
L7.2381 31.0739
" />
<path d="M7.2381 31.0739
L7.2381 30.8358
" />
<path d="M7.2381 30.8358
L7.2857 30.6453
" />
<path d="M7.2857 30.6453
L7.3333 30.5501
" />
<path d="M7.3333 30.5501
L7.3810 30.5024
" />
<path d="M7.3810 30.5024
L7.4762 30.4548
" />
<path d="M8.1905 30.5501
L8.2381 30.5024
" />
<path d="M8.2381 30.5024
L8.3333 30.4548
" />
<path d="M8.3333 30.4548
L8.5714 30.4548
" />
<path d="M8.5714 30.4548
L8.6667 30.5024
" />
<path d="M8.6667 30.5024
L8.7143 30.5501
" />
<path d="M8.7143 30.5501
L8.7619 30.6453
" />
<path d="M8.7619 30.6453
L8.7619 30.7405
" />
<path d="M8.7619 30.7405
L8.7143 30.8834
" />
<path d="M8.7143 30.8834
L8.1429 31.4548
" />
<path d="M8.1429 31.4548
L8.7619 31.4548
" />
</g></g>
<g style="fill:none; 
stroke:#D0D2CD; stroke-width:0.1000; stroke-opacity:1; 
stroke-linecap:round; stroke-linejoin:round;">
<path d="M0.0000 0.0000
L100.0000 0.0000
" />
<path d="M100.0000 0.0000
L100.0000 40.0000
" />
<path d="M100.0000 40.0000
L0.0000 40.0000
" />
<path d="M0.0000 40.0000
L0.0000 0.0000
" />
</g>
<g style="fill:#000000; fill-opacity:1.0000; stroke:none;">
<circle cx="5.0000" cy="5.0000" r="1.6000" /> 
<circle cx="95.0000" cy="5.0000" r="1.6000" /> 
<circle cx="5.0000" cy="35.0000" r="1.6000" /> 
<circle cx="95.0000" cy="35.0000" r="1.6000" /> 
</g> 
</svg>
