%TF.GenerationSoftware,KiCad,Pcbnew,10.0.5*%
%TF.CreationDate,2026-08-16T16:14:00+09:00*%
%TF.ProjectId,S90-0603,5339302d-3036-4303-932e-6b696361645f,rev?*%
%TF.SameCoordinates,Original*%
%TF.FileFunction,Legend,Top*%
%TF.FilePolarity,Positive*%
%FSLAX46Y46*%
G04 Gerber Fmt 4.6, Leading zero omitted, Abs format (unit mm)*
G04 Created by KiCad (PCBNEW 10.0.5) date 2026-08-16 16:14:00*
%MOMM*%
%LPD*%
G01*
G04 APERTURE LIST*
%ADD10C,0.150000*%
G04 APERTURE END LIST*
D10*
X1238095Y-31407200D02*
X1380952Y-31454819D01*
X1380952Y-31454819D02*
X1619047Y-31454819D01*
X1619047Y-31454819D02*
X1714285Y-31407200D01*
X1714285Y-31407200D02*
X1761904Y-31359580D01*
X1761904Y-31359580D02*
X1809523Y-31264342D01*
X1809523Y-31264342D02*
X1809523Y-31169104D01*
X1809523Y-31169104D02*
X1761904Y-31073866D01*
X1761904Y-31073866D02*
X1714285Y-31026247D01*
X1714285Y-31026247D02*
X1619047Y-30978628D01*
X1619047Y-30978628D02*
X1428571Y-30931009D01*
X1428571Y-30931009D02*
X1333333Y-30883390D01*
X1333333Y-30883390D02*
X1285714Y-30835771D01*
X1285714Y-30835771D02*
X1238095Y-30740533D01*
X1238095Y-30740533D02*
X1238095Y-30645295D01*
X1238095Y-30645295D02*
X1285714Y-30550057D01*
X1285714Y-30550057D02*
X1333333Y-30502438D01*
X1333333Y-30502438D02*
X1428571Y-30454819D01*
X1428571Y-30454819D02*
X1666666Y-30454819D01*
X1666666Y-30454819D02*
X1809523Y-30502438D01*
X2285714Y-31454819D02*
X2476190Y-31454819D01*
X2476190Y-31454819D02*
X2571428Y-31407200D01*
X2571428Y-31407200D02*
X2619047Y-31359580D01*
X2619047Y-31359580D02*
X2714285Y-31216723D01*
X2714285Y-31216723D02*
X2761904Y-31026247D01*
X2761904Y-31026247D02*
X2761904Y-30645295D01*
X2761904Y-30645295D02*
X2714285Y-30550057D01*
X2714285Y-30550057D02*
X2666666Y-30502438D01*
X2666666Y-30502438D02*
X2571428Y-30454819D01*
X2571428Y-30454819D02*
X2380952Y-30454819D01*
X2380952Y-30454819D02*
X2285714Y-30502438D01*
X2285714Y-30502438D02*
X2238095Y-30550057D01*
X2238095Y-30550057D02*
X2190476Y-30645295D01*
X2190476Y-30645295D02*
X2190476Y-30883390D01*
X2190476Y-30883390D02*
X2238095Y-30978628D01*
X2238095Y-30978628D02*
X2285714Y-31026247D01*
X2285714Y-31026247D02*
X2380952Y-31073866D01*
X2380952Y-31073866D02*
X2571428Y-31073866D01*
X2571428Y-31073866D02*
X2666666Y-31026247D01*
X2666666Y-31026247D02*
X2714285Y-30978628D01*
X2714285Y-30978628D02*
X2761904Y-30883390D01*
X3380952Y-30454819D02*
X3476190Y-30454819D01*
X3476190Y-30454819D02*
X3571428Y-30502438D01*
X3571428Y-30502438D02*
X3619047Y-30550057D01*
X3619047Y-30550057D02*
X3666666Y-30645295D01*
X3666666Y-30645295D02*
X3714285Y-30835771D01*
X3714285Y-30835771D02*
X3714285Y-31073866D01*
X3714285Y-31073866D02*
X3666666Y-31264342D01*
X3666666Y-31264342D02*
X3619047Y-31359580D01*
X3619047Y-31359580D02*
X3571428Y-31407200D01*
X3571428Y-31407200D02*
X3476190Y-31454819D01*
X3476190Y-31454819D02*
X3380952Y-31454819D01*
X3380952Y-31454819D02*
X3285714Y-31407200D01*
X3285714Y-31407200D02*
X3238095Y-31359580D01*
X3238095Y-31359580D02*
X3190476Y-31264342D01*
X3190476Y-31264342D02*
X3142857Y-31073866D01*
X3142857Y-31073866D02*
X3142857Y-30835771D01*
X3142857Y-30835771D02*
X3190476Y-30645295D01*
X3190476Y-30645295D02*
X3238095Y-30550057D01*
X3238095Y-30550057D02*
X3285714Y-30502438D01*
X3285714Y-30502438D02*
X3380952Y-30454819D01*
X4142857Y-31073866D02*
X4904762Y-31073866D01*
X5571428Y-30454819D02*
X5666666Y-30454819D01*
X5666666Y-30454819D02*
X5761904Y-30502438D01*
X5761904Y-30502438D02*
X5809523Y-30550057D01*
X5809523Y-30550057D02*
X5857142Y-30645295D01*
X5857142Y-30645295D02*
X5904761Y-30835771D01*
X5904761Y-30835771D02*
X5904761Y-31073866D01*
X5904761Y-31073866D02*
X5857142Y-31264342D01*
X5857142Y-31264342D02*
X5809523Y-31359580D01*
X5809523Y-31359580D02*
X5761904Y-31407200D01*
X5761904Y-31407200D02*
X5666666Y-31454819D01*
X5666666Y-31454819D02*
X5571428Y-31454819D01*
X5571428Y-31454819D02*
X5476190Y-31407200D01*
X5476190Y-31407200D02*
X5428571Y-31359580D01*
X5428571Y-31359580D02*
X5380952Y-31264342D01*
X5380952Y-31264342D02*
X5333333Y-31073866D01*
X5333333Y-31073866D02*
X5333333Y-30835771D01*
X5333333Y-30835771D02*
X5380952Y-30645295D01*
X5380952Y-30645295D02*
X5428571Y-30550057D01*
X5428571Y-30550057D02*
X5476190Y-30502438D01*
X5476190Y-30502438D02*
X5571428Y-30454819D01*
X6761904Y-30454819D02*
X6571428Y-30454819D01*
X6571428Y-30454819D02*
X6476190Y-30502438D01*
X6476190Y-30502438D02*
X6428571Y-30550057D01*
X6428571Y-30550057D02*
X6333333Y-30692914D01*
X6333333Y-30692914D02*
X6285714Y-30883390D01*
X6285714Y-30883390D02*
X6285714Y-31264342D01*
X6285714Y-31264342D02*
X6333333Y-31359580D01*
X6333333Y-31359580D02*
X6380952Y-31407200D01*
X6380952Y-31407200D02*
X6476190Y-31454819D01*
X6476190Y-31454819D02*
X6666666Y-31454819D01*
X6666666Y-31454819D02*
X6761904Y-31407200D01*
X6761904Y-31407200D02*
X6809523Y-31359580D01*
X6809523Y-31359580D02*
X6857142Y-31264342D01*
X6857142Y-31264342D02*
X6857142Y-31026247D01*
X6857142Y-31026247D02*
X6809523Y-30931009D01*
X6809523Y-30931009D02*
X6761904Y-30883390D01*
X6761904Y-30883390D02*
X6666666Y-30835771D01*
X6666666Y-30835771D02*
X6476190Y-30835771D01*
X6476190Y-30835771D02*
X6380952Y-30883390D01*
X6380952Y-30883390D02*
X6333333Y-30931009D01*
X6333333Y-30931009D02*
X6285714Y-31026247D01*
X7476190Y-30454819D02*
X7571428Y-30454819D01*
X7571428Y-30454819D02*
X7666666Y-30502438D01*
X7666666Y-30502438D02*
X7714285Y-30550057D01*
X7714285Y-30550057D02*
X7761904Y-30645295D01*
X7761904Y-30645295D02*
X7809523Y-30835771D01*
X7809523Y-30835771D02*
X7809523Y-31073866D01*
X7809523Y-31073866D02*
X7761904Y-31264342D01*
X7761904Y-31264342D02*
X7714285Y-31359580D01*
X7714285Y-31359580D02*
X7666666Y-31407200D01*
X7666666Y-31407200D02*
X7571428Y-31454819D01*
X7571428Y-31454819D02*
X7476190Y-31454819D01*
X7476190Y-31454819D02*
X7380952Y-31407200D01*
X7380952Y-31407200D02*
X7333333Y-31359580D01*
X7333333Y-31359580D02*
X7285714Y-31264342D01*
X7285714Y-31264342D02*
X7238095Y-31073866D01*
X7238095Y-31073866D02*
X7238095Y-30835771D01*
X7238095Y-30835771D02*
X7285714Y-30645295D01*
X7285714Y-30645295D02*
X7333333Y-30550057D01*
X7333333Y-30550057D02*
X7380952Y-30502438D01*
X7380952Y-30502438D02*
X7476190Y-30454819D01*
X8142857Y-30454819D02*
X8761904Y-30454819D01*
X8761904Y-30454819D02*
X8428571Y-30835771D01*
X8428571Y-30835771D02*
X8571428Y-30835771D01*
X8571428Y-30835771D02*
X8666666Y-30883390D01*
X8666666Y-30883390D02*
X8714285Y-30931009D01*
X8714285Y-30931009D02*
X8761904Y-31026247D01*
X8761904Y-31026247D02*
X8761904Y-31264342D01*
X8761904Y-31264342D02*
X8714285Y-31359580D01*
X8714285Y-31359580D02*
X8666666Y-31407200D01*
X8666666Y-31407200D02*
X8571428Y-31454819D01*
X8571428Y-31454819D02*
X8285714Y-31454819D01*
X8285714Y-31454819D02*
X8190476Y-31407200D01*
X8190476Y-31407200D02*
X8142857Y-31359580D01*
M02*
